<svg xmlns="http://www.w3.org/2000/svg" width="73.06mm" height="73.06mm" viewBox="0 0 207.09 207.09"><path d="M189.53,106a17.08,17.08,0,0,0-15,8.84H151.5a17.1,17.1,0,0,0-29.95,0H98.49a17.1,17.1,0,0,0-29.95,0H45.48a17.1,17.1,0,0,0-29.95,0H4.05a4,4,0,0,0-4,4.05v8.42a4.05,4.05,0,0,0,4.05,4H15.53a17.1,17.1,0,0,0,29.95,0H68.54a17.1,17.1,0,0,0,29.95,0h23.06a17.1,17.1,0,0,0,30,0h23.06a17.1,17.1,0,1,0,15-25.36Z" fill="#f49910"/><path d="M193.74,0h-7.37a1.83,1.83,0,0,0-1.83,1.83V54.72l-10.39.19a.82.82,0,0,0-.57,1.23l16.57,32.23a.64.64,0,0,0,1.2,0l15.2-32.8a.82.82,0,0,0-.63-1.21l-10.35.18V1.83A1.83,1.83,0,0,0,193.74,0Z" fill="#f49910"/><rect width="207.09" height="207.09" fill="none"/></svg>