<svg xmlns="http://www.w3.org/2000/svg" width="73.74mm" height="73.74mm" viewBox="0 0 209.02 209.02"><path d="M195.46,190.72a17.11,17.11,0,0,0-8.85-15V152.69a17.09,17.09,0,0,0,0-29.95V99.68a17.09,17.09,0,0,0,0-29.95V46.67a17.09,17.09,0,0,0,0-29.95V5.24a4.05,4.05,0,0,0-4.05-4.05h-8.41a4.05,4.05,0,0,0-4.05,4.05V16.72a17.1,17.1,0,0,0,0,30V69.73a17.1,17.1,0,0,0,0,30v23.06a17.1,17.1,0,0,0,0,30v23.06a17.1,17.1,0,1,0,25.36,15Z" fill="#f49910"/><path d="M38.87,195h65.94l.24,13a1,1,0,0,0,1.53.71L146.78,188a.8.8,0,0,0,0-1.49l-39-18.05h0l-2-.91a1,1,0,0,0-1.51.78l0,1.89h0l.2,11H38.87a2.29,2.29,0,0,0-2.29,2.28v9.19A2.3,2.3,0,0,0,38.87,195Z" fill="#f49910"/><rect width="209.02" height="209.02" fill="none"/></svg>