<svg xmlns="http://www.w3.org/2000/svg" width="40.14mm" height="39.13mm" viewBox="0 0 113.77 110.91"><path d="M50.38,2.51V68.45l-13,.23a1,1,0,0,0-.71,1.54l20.66,40.19a.8.8,0,0,0,1.49,0L76.92,71.43h0l.9-2A1,1,0,0,0,77,68l-1.88,0h0l-11,.2V2.51A2.29,2.29,0,0,0,61.85.22H52.67A2.28,2.28,0,0,0,50.38,2.51Z" fill="#b2b2b2"/><rect x="52.89" y="-6.77" width="8.11" height="124.23" rx="2.31" transform="translate(-20.04 35.89) rotate(-30)" fill="#f49910"/><rect x="53.51" y="-6.77" width="8.11" height="124.23" rx="2.31" transform="translate(79.76 132.06) rotate(-150)" fill="#f49910"/><rect width="113.77" height="110.69" fill="none"/></svg>