<svg xmlns="http://www.w3.org/2000/svg" width="72.9mm" height="72.9mm" viewBox="0 0 206.63 206.63"><path d="M4.05,132.67H15.53a17.09,17.09,0,0,0,29.95,0H68.54a17.09,17.09,0,0,0,29.95,0h23.06a17.09,17.09,0,0,0,29.94,0h23.07a17.1,17.1,0,1,0,0-16.51H151.49a17.1,17.1,0,0,0-29.94,0H98.49a17.1,17.1,0,0,0-29.95,0H45.48a17.1,17.1,0,0,0-29.95,0H4.05a4,4,0,0,0-4,4v8.41A4,4,0,0,0,4.05,132.67Z" fill="#f49910"/><path d="M13.68,77H66.56l.19,10.39A.82.82,0,0,0,68,88l32.24-16.57a.65.65,0,0,0,0-1.2L69,55.71h0L67.39,55a.83.83,0,0,0-1.21.63l0,1.51h0L66.37,66H13.68a1.83,1.83,0,0,0-1.84,1.83v7.37A1.83,1.83,0,0,0,13.68,77Z" fill="#f49910"/><rect width="206.63" height="206.63" fill="none"/></svg>