<svg xmlns="http://www.w3.org/2000/svg" width="73.74mm" height="73.74mm" viewBox="0 0 209.02 209.02"><path d="M166,4.05V15.53a17.1,17.1,0,0,0,0,29.95V68.54a17.1,17.1,0,0,0,0,29.95v23.06a17.1,17.1,0,0,0,0,29.94v23.07a17.11,17.11,0,1,0,16.51,0V151.49a17.09,17.09,0,0,0,0-29.94V98.49a17.09,17.09,0,0,0,0-29.95V45.48a17.09,17.09,0,0,0,0-29.95V4.05a4,4,0,0,0-4.05-4H170A4,4,0,0,0,166,4.05Z" fill="#f49910"/><path d="M111.74,27.6V93.54l-12.95.24a1,1,0,0,0-.71,1.53l20.66,40.2a.8.8,0,0,0,1.49,0l18-38.95h0l.9-2a1,1,0,0,0-.78-1.51l-1.89,0h0l-11,.2V27.6a2.3,2.3,0,0,0-2.29-2.29H114A2.29,2.29,0,0,0,111.74,27.6Z" fill="#f49910"/><rect width="209.02" height="209.02" fill="none"/></svg>