<svg xmlns="http://www.w3.org/2000/svg" width="500" height="500" viewBox="0 0 500 500"><path d="M478.32,21.51A29.15,29.15,0,0,0,453,13.61,265.27,265.27,0,0,0,307.69,89.44L187.61,209.52a25.14,25.14,0,0,0-4,30l-17.37,17.38a7.64,7.64,0,0,0,0,11.06l65.56,65.56a7.64,7.64,0,0,0,11.06,0l17.38-17.38a22.29,22.29,0,0,0,11.85,3.16,24.51,24.51,0,0,0,17.38-7.11L410.39,191.35C449.88,151.85,476,101.29,486.22,46,488.59,37.31,485.43,27.83,478.32,21.51ZM237.38,317l-54.51-54.5,11.06-11.06L221.58,279l27.65,27.64ZM471.21,43.63c-9.48,52.13-34,99.53-71.09,136.66L279.25,301.15c-3.95,4-9.48,4-12.64,0L198.67,234c-3.95-3.95-3.95-9.48,0-12.64L319.54,99.71c37.13-37.13,84.53-62.4,136.66-71.09h2.37a12.69,12.69,0,0,1,8.69,3.95A11.61,11.61,0,0,1,471.21,43.63ZM147.33,313c-6.32-6.32-15.8-9.48-25.28-8.69a31.66,31.66,0,0,0-22.12,15L13.82,475a8.4,8.4,0,0,0,1.58,9.48,7.17,7.17,0,0,0,5.53,2.37,7.12,7.12,0,0,0,3.95-.79L179.71,399.9c8.69-4.74,13.43-12.64,15-22.12A27.5,27.5,0,0,0,186,352.5Zm32.38,62.41a13.9,13.9,0,0,1-7.1,10.27L41.47,458.36l72.68-131.14a15.51,15.51,0,0,1,10.27-7.11h2.37c4,0,7.11,1.58,10.27,3.95l39.5,39.5A15.15,15.15,0,0,1,179.71,375.41ZM384.32,81.54a69,69,0,0,0-30,19c-9.48,9.48-15.8,19.75-19,30-3.16,11.85-1.58,22.12,4.74,29.23a24.51,24.51,0,0,0,17.38,7.11c12.64,0,28.44-7.11,41.87-20.54,9.48-9.48,15.79-19.75,18.95-30,3.16-11.85,1.58-22.12-4.73-29.23C407.23,79.17,397,77.59,384.32,81.54Zm19,29.23c-2.37,7.9-7.9,16.59-15,23.7-14.22,14.22-31.6,19.75-37.13,14.22-2.37-2.37-2.37-7.11-.79-13.43,2.37-7.9,7.9-16.59,15-23.7s15.8-12.64,23.7-15a21.87,21.87,0,0,1,7.11-.79c3.16,0,4.74.79,6.32,2.37C404.86,99.71,404.86,104.45,403.28,110.77Zm-297,124c-13.43-25.28,66.36-110.6,101.9-129.56,24.49-12.64,50.56-17.38,68.73-11.85.79,0,1.58.79,3.16,1.58l-13.43,12.64c-14.22-2.37-33.18,2.37-51.35,11.85-38.7,20.54-94.79,89.27-95.58,106.65h0c5.53,0,18.17-4,49-18.17-3.16,6.32-5.53,12.64-5.53,19.75q-32,14.22-45,14.22c-2.37,0-3.95,0-5.53-.79C109.41,239.54,107,237.17,106.25,234.8ZM405.65,223c5.53,18.17.79,44.24-11.85,68.72C376.42,324.85,303,395.16,271.35,395.16a23.07,23.07,0,0,1-7.11-1.58c-2.37-.79-4.74-3.16-6.32-7.9-2.37-7.9,1.58-23.7,13.43-50.56h0a35.66,35.66,0,0,0,19.75-5.53c-15,31.6-18.17,44.24-18.17,49.77,16.59-.79,86.11-56.88,106.65-95.59,9.48-18.16,14.22-37.91,11.85-51.34l12.64-12.64C404.86,221.37,405.65,222.16,405.65,223Z"/></svg>