<svg xmlns="http://www.w3.org/2000/svg" width="500" height="500" viewBox="0 0 500 500"><path d="M250.12,42.42a29.13,29.13,0,0,0-23.46,12.29,265.24,265.24,0,0,0-49.16,156.4V380.93a25.12,25.12,0,0,0,18.43,24v24.58a7.63,7.63,0,0,0,7.82,7.82h92.73a7.62,7.62,0,0,0,7.82-7.82V404.94a22.22,22.22,0,0,0,10.61-6.14,24.5,24.5,0,0,0,7.26-17.32V210.56c0-55.86-17.31-110-49.15-156.41C268.55,46.33,259.61,41.86,250.12,42.42ZM288.66,421.7H211.57V406.06h78.21ZM260.73,63.09c30.16,43.57,46.36,94.4,46.36,146.91V380.93c0,5.58-3.91,9.49-8.93,8.93l-95.52.56c-5.59,0-9.5-3.91-8.94-8.94L193.14,210c0-52.51,15.64-103.9,46.36-146.91l1.68-1.68a12.71,12.71,0,0,1,8.94-3.35A11.6,11.6,0,0,1,260.73,63.09ZM226.1,151.34A68.94,68.94,0,0,0,218.28,186c0,13.4,2.79,25.13,7.82,34.63,6.14,10.61,14.52,16.76,24,17.32a24.5,24.5,0,0,0,17.31-7.27c8.94-8.93,15.08-25.13,15.08-44.12,0-13.41-2.79-25.14-7.82-34.64-6.14-10.61-14.52-16.75-24-17.31C240.62,133.47,232.24,139.61,226.1,151.34Zm34.07,7.27c3.91,7.26,6.15,17.31,6.15,27.37,0,20.11-8.38,36.31-16.2,36.31-3.35,0-6.71-3.36-10.06-8.94-3.91-7.26-6.14-17.32-6.14-27.37s2.23-20.11,6.14-27.37a21.84,21.84,0,0,1,4.47-5.59c2.24-2.23,3.91-2.79,6.15-2.79C253.47,149.67,256.82,153,260.17,158.61ZM137.84,456.34c-27.37-8.38-31.28-125.13-19.55-163.67,8.38-26.26,23.46-48,40.22-57,.56-.56,1.67-.56,3.35-1.12L161.3,253c-11.73,8.38-21.78,25.13-27.93,44.69-12.85,41.89-3.91,130.15,7.82,143h0c3.91-3.91,10.06-15.64,21.79-47.48,2.23,6.71,5,12.85,10.05,17.88Q160.46,443.76,151.25,453c-1.68,1.68-2.8,2.8-4.47,3.36C143.43,457.45,140.07,457.45,137.84,456.34ZM341.17,236.25c16.75,8.94,31.84,30.72,40.22,57C392.56,329,390.32,430.64,368,453a22.79,22.79,0,0,1-6.15,3.91c-2.23,1.12-5.58,1.12-10.05-1.11-7.26-3.91-15.64-17.88-26.25-45.25h0a35.66,35.66,0,0,0,10.05-17.87c11.73,32.95,18.43,44.12,22.34,48,11.18-12.28,20.67-101.1,7.82-143C359.6,278.14,349,260.83,337.82,253V235.13C339.49,235.69,340.61,235.69,341.17,236.25Z"/></svg>