<svg xmlns="http://www.w3.org/2000/svg" width="500" height="500" viewBox="0 0 500 500"><path d="M388.26,172.87a5.13,5.13,0,0,1-3.65-1.51L328,114.79a5.45,5.45,0,0,1-1.66-3.51,5.21,5.21,0,0,1,3.19-5.06l35.21-14.57a4.88,4.88,0,0,1,.82-.26,16.58,16.58,0,0,1,3.57-.33c5,0,14.88,1.6,25.65,12.37C409.65,118.28,408,132.55,408,133.15a5.35,5.35,0,0,1-.35,1.32L393,169.68a5.17,5.17,0,0,1-3.77,3.09A4.85,4.85,0,0,1,388.26,172.87ZM340.81,113l45.48,45.48a.14.14,0,0,0,.23-.05l11.19-27a.07.07,0,0,0,0-.05c0-2.25-.56-10.89-10.22-20.55-8.44-8.44-15.64-9.35-18.34-9.35a8.43,8.43,0,0,0-1,0h0l-22.42,9.39C345.61,110.88,340.73,112.89,340.81,113Z"/><path d="M448.94,91.76a40.67,40.67,0,0,0-40.63-40.62H367.66a57.62,57.62,0,0,0-8.31,0h0l-233.91.08c-12.63,0-23.79,2-33.49,6A62.77,62.77,0,0,0,70.79,71c-13.5,13.5-20.08,32.82-19.71,56.46.26,17.3,4,36.39,11.73,57.78C80.74,234.51,117,288.29,164.39,335.69,232.52,403.81,314,448,372.61,449c.62,0,1.24.05,1.86.05,23.17,0,41.56-6.64,54.65-19.75a59.4,59.4,0,0,0,13.42-20.54c6.77-17.26,6-35.28,6.06-34Zm-42.1-30.29a31.76,31.76,0,0,1,31.77,31.76v1.49a1.48,1.48,0,0,1-2.73.78,97.73,97.73,0,0,0-33.27-32.71,5.13,5.13,0,0,0-1.35-.82c-.28-.16-.55-.35-.83-.5ZM414.45,85c14.16,14.15,22.76,31.79,23.59,48.39a4.81,4.81,0,0,0,.44,1.77,1.54,1.54,0,0,1,.13.6V312.24a1.47,1.47,0,0,1-2.86.51c-17.39-47.07-48.2-104.76-96.4-153C309,129.4,272.1,108.54,239.61,89.39a1.47,1.47,0,0,1,.62-2.73L397.43,72a1.48,1.48,0,0,1,.92.21A88.84,88.84,0,0,1,414.45,85ZM357.31,61.47h0a5.25,5.25,0,0,0,1.12.1c.47,0,1-.06,1.45-.1h7.42a1.48,1.48,0,0,1,0,2.94L219.77,78.19A1.55,1.55,0,0,1,219,78a308.77,308.77,0,0,0-30.82-13.72,1.47,1.47,0,0,1,.52-2.85ZM73.39,83.8a50.65,50.65,0,0,1,4.7-5.53,52.61,52.61,0,0,1,18.2-11.68c8.39-3.31,18.09-5,29.15-5,24.8,0,54.18,8.49,85,23.68a1.49,1.49,0,0,1,.68,2L200.33,110a1.48,1.48,0,0,1-2,.66c-33.8-18.1-66.05-28.28-92.69-28.28a75.25,75.25,0,0,0-22,3.06,50.78,50.78,0,0,0-10.94,4.68l-.1.07a1.48,1.48,0,0,1-2.06-2A48.5,48.5,0,0,1,73.39,83.8ZM397.85,426.11c-.55.65-1.07,1.32-1.66,1.91-5.79,5.8-14.9,9-26,10.09-.08,0,.08,0,0,0C314.29,436,238.12,386,172.75,320.61c-46.35-46.35-78-90.23-95.4-138.15C70.51,163.65,64.91,146.18,64.19,131a1.85,1.85,0,0,1,0-.23c1-11.53,1.73-20.76,7.83-26.87.6-.6,1.28-1.15,2-1.7a34.33,34.33,0,0,1,9.34-5.41C89.51,94.33,105.14,94,113.76,94c39.79,0,101.58,31.87,181,111.28,83.55,83.55,124.77,171.36,108.65,211.44A34.17,34.17,0,0,1,397.85,426.11Zm40.76-46.58A76.38,76.38,0,0,1,434,403a53.76,53.76,0,0,1-12.14,19,53.15,53.15,0,0,1-9.82,7.57,1.49,1.49,0,0,1-2.06-2l0-.07a50.4,50.4,0,0,0,4.73-10.95C428.81,370.36,394.07,280.12,307,193.06c-31-31-64.59-57-97.14-76a1.47,1.47,0,0,1-.59-1.9l11-23.13a1.47,1.47,0,0,1,2-.67c35.44,19.2,72.26,46.82,105.91,80.47,67.2,67.2,107.82,143.16,110.38,197.06C438.78,372.55,438.79,376.1,438.61,379.53Z"/></svg>